<?xml version="1.0" encoding="UTF-8" standalone="no"?>
<!-- Created with Inkscape (http://www.inkscape.org/) -->

<svg
   xmlns:dc="http://purl.org/dc/elements/1.1/"
   xmlns:cc="http://creativecommons.org/ns#"
   xmlns:rdf="http://www.w3.org/1999/02/22-rdf-syntax-ns#"
   xmlns:svg="http://www.w3.org/2000/svg"
   xmlns="http://www.w3.org/2000/svg"
   xmlns:sodipodi="http://sodipodi.sourceforge.net/DTD/sodipodi-0.dtd"
   xmlns:inkscape="http://www.inkscape.org/namespaces/inkscape"
   width="10.534535mm"
   height="8.7601109mm"
   viewBox="0 0 10.534535 8.7601109"
   version="1.1"
   id="svg7060"
   sodipodi:docname="drawer1.svg"
   inkscape:version="0.92.5 (2060ec1f9f, 2020-04-08)">
  <defs
     id="defs7054" />
  <sodipodi:namedview
     id="base"
     pagecolor="#ffffff"
     bordercolor="#666666"
     borderopacity="1.0"
     inkscape:pageopacity="0.0"
     inkscape:pageshadow="2"
     inkscape:zoom="15.839192"
     inkscape:cx="35.140095"
     inkscape:cy="8.3501885"
     inkscape:document-units="mm"
     inkscape:current-layer="layer1"
     showgrid="false"
     inkscape:window-width="1600"
     inkscape:window-height="847"
     inkscape:window-x="-8"
     inkscape:window-y="-8"
     inkscape:window-maximized="1" />
  <metadata
     id="metadata7057">
    <rdf:RDF>
      <cc:Work
         rdf:about="">
        <dc:format>image/svg+xml</dc:format>
        <dc:type
           rdf:resource="http://purl.org/dc/dcmitype/StillImage" />
      </cc:Work>
    </rdf:RDF>
  </metadata>
  <g
     inkscape:label="Layer 1"
     inkscape:groupmode="layer"
     id="layer1"
     transform="translate(-49.917256,-68.858035)">
    <path
       inkscape:connector-curvature="0"
       style="fill:#aa00aa;stroke-width:0.26458332;fill-opacity:1"
       d="m 55.5654,69.002518 c -1.632744,-0.04498 -3.026305,0.09181 -4.651111,0.258762 -0.16166,0.01667 -0.329141,0.03598 -0.468312,0.119856 -0.358246,0.215636 -0.36539,0.570442 -0.329142,0.987161 0.01191,0.138112 0.04313,0.303212 0.171979,0.354012 0.03572,0.01402 0.07488,0.01693 0.113506,0.01958 2.93714,0.194734 6.208448,0.101336 9.143207,-0.123824 0.36142,-0.02778 0.451907,-0.06535 0.644789,-0.372269 0.218281,-0.347134 0.163512,-0.811742 -0.187061,-1.024202 -0.350837,-0.212196 -0.455347,-0.230717 -0.865451,-0.231511 -1.107546,-0.0019 -2.465388,0.04313 -3.572404,0.01244 z"
       id="path6999" />
    <path
       inkscape:connector-curvature="0"
       style="fill:#3d7c47;stroke-width:0.26458332;fill-opacity:1"
       d="m 53.8255,70.980278 c -1.125803,0 -2.286794,-0.03043 -3.432175,-0.106362 -0.04022,-0.0026 -0.09631,-0.0058 -0.153459,-0.02831 -0.22225,-0.08784 -0.246062,-0.362215 -0.254793,-0.465667 -0.03651,-0.420953 -0.03625,-0.853811 0.392641,-1.11178 0.169069,-0.101864 0.36539,-0.121973 0.523081,-0.137848 1.531144,-0.157427 2.97815,-0.307181 4.668309,-0.259556 v 0 c 0.684477,0.01905 1.468173,0.0085 2.225675,-0.0016 0.465666,-0.0061 0.922602,-0.01138 1.343025,-0.01111 0.429418,0.0011 0.556683,0.02275 0.933449,0.250561 0.180975,0.109537 0.307711,0.284691 0.357188,0.493448 0.05609,0.237066 0.01005,0.497152 -0.126471,0.714375 -0.219604,0.34872 -0.348721,0.40296 -0.746654,0.433652 -1.533789,0.117739 -3.566054,0.230187 -5.729816,0.230187 z m 1.109662,-1.853935 c -1.41314,0 -2.678112,0.130175 -4.007379,0.266964 -0.167217,0.0172 -0.303742,0.03545 -0.413544,0.101336 -0.273579,0.164571 -0.304006,0.419629 -0.265641,0.862541 0.01217,0.142346 0.04207,0.224102 0.08863,0.242359 0.01773,0.0069 0.04842,0.0087 0.07276,0.01032 3.332163,0.220397 6.801379,0.05477 9.125215,-0.123561 0.32385,-0.02487 0.374914,-0.04366 0.54266,-0.310885 0.09895,-0.157427 0.132821,-0.344223 0.09313,-0.512234 -0.02328,-0.09869 -0.08334,-0.235743 -0.236802,-0.328348 -0.327818,-0.198173 -0.405606,-0.211402 -0.797189,-0.21246 -0.419365,-0.0011 -0.874448,0.0053 -1.338792,0.01138 -0.760412,0.01005 -1.546489,0.02037 -2.236523,0.0013 v 0 c -0.21246,-0.0061 -0.420952,-0.0087 -0.626533,-0.0087 z"
       id="path7001" />
    <path
       inkscape:connector-curvature="0"
       style="fill:#aa00aa;stroke-width:0.26458332;fill-opacity:1"
       d="m 55.392891,72.68102 c -1.513946,0.05053 -3.013075,0.01349 -4.527285,0.06032 -0.267494,0.0082 -0.579173,0.04048 -0.721519,0.266964 -0.140229,0.223309 -0.09366,0.607748 -0.05689,0.877094 0.03281,0.239713 0.188648,0.350308 0.429418,0.374386 0.279136,0.02805 0.656167,0.01693 0.937155,0.02196 2.441045,0.04498 5.049043,-0.06059 7.440083,-0.0021 0.327819,0.0079 0.680773,-0.0553 0.923925,-0.275167 0.199231,-0.180178 0.286543,-0.45799 0.296862,-0.726542 0.0087,-0.227806 -0.04286,-0.477044 -0.21881,-0.622036 -0.172244,-0.142081 -0.41566,-0.147902 -0.638969,-0.146579 -1.338262,0.0079 -2.526241,0.127265 -3.863975,0.171715 z"
       id="path7003" />
    <path
       inkscape:connector-curvature="0"
       style="fill:#3d7c47;stroke-width:0.26458332;fill-opacity:1"
       d="m 52.829608,74.425947 c -0.464079,0 -0.925248,-0.0034 -1.378215,-0.01164 -0.278341,-0.0056 -0.659341,0.0061 -0.947737,-0.02275 -0.402431,-0.03995 -0.519906,-0.287602 -0.547423,-0.488156 -0.04577,-0.335492 -0.08149,-0.714375 0.0762,-0.9652 0.194469,-0.309563 0.623358,-0.322792 0.829469,-0.329142 0.741891,-0.02275 1.491456,-0.02566 2.21615,-0.02831 0.756443,-0.0029 1.538552,-0.0058 2.310606,-0.03175 v 0 c 0.545571,-0.01799 1.073414,-0.04948 1.583796,-0.07937 0.732366,-0.04313 1.489604,-0.08758 2.283883,-0.09234 0.202935,0 0.505619,-0.0029 0.723635,0.177006 0.184415,0.151342 0.279135,0.410633 0.2667,0.729192 -0.01323,0.342106 -0.134144,0.633148 -0.340254,0.819679 -0.297391,0.269081 -0.718079,0.316177 -1.016,0.309298 -1.241425,-0.03016 -2.567781,-0.01614 -3.849687,-0.0024 -0.729192,0.0079 -1.473729,0.01588 -2.211123,0.01587 z m 2.567781,-1.612636 c -0.776023,0.02593 -1.560248,0.02884 -2.318544,0.03175 -0.723106,0.0029 -1.471083,0.0056 -2.209006,0.02831 -0.256646,0.0077 -0.508794,0.03836 -0.613569,0.205053 -0.119591,0.190764 -0.06641,0.579702 -0.03784,0.788987 0.01588,0.115094 0.06509,0.236008 0.311415,0.260615 0.273843,0.02752 0.652198,0.0164 0.926306,0.02117 1.168929,0.0217 2.395537,0.0085 3.581929,-0.0045 1.284552,-0.01376 2.61276,-0.02778 3.858948,0.0024 0.251354,0.0069 0.599546,-0.03069 0.832114,-0.241036 0.206375,-0.186531 0.247385,-0.477044 0.253471,-0.633677 0.0053,-0.135467 -0.01005,-0.382323 -0.170656,-0.514614 -0.13335,-0.109538 -0.339725,-0.116946 -0.554037,-0.116417 -0.7874,0.0048 -1.507596,0.0471 -2.270125,0.09181 -0.511969,0.03069 -1.041665,0.06191 -1.590411,0.08017 z"
       id="path7005" />
    <path
       inkscape:connector-curvature="0"
       style="fill:#aa00aa;stroke-width:0.26458332;fill-opacity:1"
       d="m 55.130689,75.990693 c -1.556014,0.01402 -2.916237,-0.121179 -4.47331,-0.06059 -0.102129,0.004 -0.210344,0.02963 -0.28284,0.101865 -0.09975,0.09948 -0.09075,0.260614 -0.07488,0.400579 l 0.03519,0.310356 c 0.03016,0.2667 0.269081,0.734483 0.537633,0.736071 2.306637,0.01323 4.496329,0.0066 6.802967,-0.01958 0.455083,-0.0053 0.911225,-0.01111 1.363662,-0.0598 0.283104,-0.03043 0.564621,-0.07726 0.842433,-0.140758 0.104246,-0.02381 0.215106,-0.05424 0.284162,-0.135732 0.05662,-0.0672 0.07541,-0.157956 0.08731,-0.245004 0.02117,-0.153194 0.02778,-0.308239 0.02037,-0.462491 -0.01322,-0.27358 -0.237855,-0.493448 -0.511433,-0.501386 -1.558661,-0.04551 -3.059377,0.06244 -4.631267,0.07646 z"
       id="path7007" />
    <path
       inkscape:connector-curvature="0"
       style="fill:#3d7c47;stroke-width:0.26458332;fill-opacity:1"
       d="m 53.169597,77.618145 c -0.758824,0 -1.520824,-0.0021 -2.298435,-0.0066 -0.369887,-0.0021 -0.635529,-0.56515 -0.668073,-0.853546 L 50.1679,76.447628 c -0.01402,-0.124619 -0.04022,-0.356394 0.112977,-0.509587 0.08625,-0.08572 0.214577,-0.134409 0.37121,-0.14023 0.885031,-0.03387 1.722438,-0.0056 2.532327,0.02249 0.624946,0.0217 1.270529,0.04471 1.944952,0.0381 v 0 c 0.599546,-0.0056 1.197769,-0.02461 1.776413,-0.04339 0.930804,-0.03016 1.892829,-0.06085 2.859616,-0.03281 0.342106,0.01005 0.623094,0.285486 0.639762,0.627327 0.0079,0.162455 7.94e-4,0.326232 -0.02143,0.487098 -0.01455,0.107157 -0.03889,0.219605 -0.11721,0.312209 -0.09499,0.112447 -0.233628,0.151341 -0.35613,0.179387 -0.281517,0.06429 -0.570177,0.112448 -0.857515,0.143404 -0.466989,0.05001 -0.950118,0.05556 -1.376362,0.06059 -1.551252,0.01746 -3.022865,0.02593 -4.506913,0.02593 z M 51.506956,76.04652 c -0.275961,0 -0.55589,0.0048 -0.84455,0.01614 -0.08784,0.0032 -0.156898,0.02567 -0.194733,0.06324 -0.0553,0.05503 -0.05027,0.172773 -0.03678,0.291835 l 0.03519,0.310356 c 0.02805,0.249238 0.247385,0.617803 0.406929,0.618861 2.296848,0.01376 4.457965,0.0071 6.800586,-0.01958 0.44106,-0.005 0.896937,-0.01005 1.351227,-0.059 0.277018,-0.0299 0.55536,-0.07646 0.826823,-0.138113 0.0844,-0.01931 0.170655,-0.04233 0.212724,-0.09234 0.0344,-0.04075 0.04789,-0.109273 0.05715,-0.177271 0.02011,-0.144727 0.02646,-0.2921 0.01932,-0.43815 -0.01006,-0.204523 -0.178334,-0.369623 -0.383122,-0.375709 -0.958585,-0.02805 -1.916641,0.0026 -2.843477,0.03281 -0.579966,0.01852 -1.179777,0.0381 -1.782498,0.04339 v 0 c -0.678656,0.0074 -1.328472,-0.0164 -1.956329,-0.0381 -0.564356,-0.01958 -1.10781,-0.03836 -1.668462,-0.03836 z"
       id="path7009" />
  </g>
</svg>
